<svg width="50" height="54" viewBox="0 0 50 54" fill="none" xmlns="http://www.w3.org/2000/svg">
<path d="M18.075 28.6187C17.1453 28.9797 16.0953 28.5859 15.636 27.7L7.1047 11.2718C6.10939 9.32496 6.86408 6.95153 8.81095 5.95621C8.93127 5.90153 9.04064 5.84684 9.16095 5.79215C11.3594 4.90621 13.7766 6.19684 14.3891 8.42809L14.4 8.4609L19.2453 26.3C19.4969 27.2515 18.9938 28.2578 18.075 28.6187Z" fill="#F98500"/>
<path d="M17.6156 20.3391L15.1984 21.2906C14.75 21.4547 14.2469 21.2359 14.0609 20.7875C13.8859 20.3391 14.1047 19.825 14.5531 19.65L17.1453 18.6328L17.6156 20.3391Z" fill="#FA6D00"/>
<path d="M18.5562 23.7625L16.4781 24.5391C16.0297 24.6922 15.5375 24.4844 15.3406 24.036C15.1656 23.5875 15.3844 23.0735 15.8437 22.8985L18.0969 22.0563L18.5562 23.7625Z" fill="#FA6D00"/>
<path d="M28.3672 12.5515C27.6344 12.0484 27.2625 11.1624 27.4266 10.2765C27.8313 8.24212 26.5188 6.26243 24.4735 5.8468C24.4516 5.8468 24.4188 5.83587 24.3969 5.83587C23.5547 5.69368 22.8547 5.09212 22.5922 4.2718C22.5266 4.07493 22.45 3.87805 22.3625 3.69212C21.4328 1.83274 19.1797 1.07805 17.3203 2.00774C15.5594 2.88274 14.7719 4.9718 15.5156 6.78743C15.8985 7.72805 16.0844 8.58118 15.4391 9.48899C14.236 11.1843 14.6406 13.5359 16.336 14.7281C16.3469 14.739 16.3688 14.7499 16.3797 14.7609C17.1125 15.2749 17.4625 16.1718 17.2875 17.0468C16.8938 19.0812 18.2281 21.0609 20.2735 21.4546C22.111 21.8046 23.9156 20.7656 24.5391 19.0046C26.3985 19.9343 28.6516 19.1687 29.5813 17.3202C30.4125 15.6468 29.8985 13.6234 28.3672 12.5515Z" fill="#598C44"/>
<path d="M36.8985 15.5593C36.4063 14.8155 36.3953 13.853 36.8766 13.0984C38.025 11.3702 37.5438 9.0296 35.8157 7.88117C35.7938 7.87023 35.7719 7.84836 35.75 7.83742C34.6782 7.15929 34.7547 6.19679 34.6672 5.09211C34.5141 3.02492 32.6985 1.47179 30.6313 1.62492C28.6735 1.77804 27.1532 3.40773 27.1532 5.37648C27.1532 6.39367 27 7.24679 26.0703 7.84836C24.3203 8.96398 23.8063 11.2937 24.9328 13.0437C24.9438 13.0546 24.9547 13.0765 24.9657 13.0874C25.4469 13.8421 25.4469 14.8046 24.9438 15.5484C23.8172 17.2874 24.3094 19.6171 26.0485 20.7546C27.6125 21.7718 29.6907 21.4874 30.9157 20.0874C32.2938 21.6405 34.6672 21.7937 36.2203 20.4265C37.6203 19.2015 37.9047 17.1234 36.8985 15.5593Z" fill="#5F9548"/>
<path d="M42.75 26.125L32.25 22.625L38.0359 5.27813C38.7359 3.18907 40.8687 1.57032 43.0891 1.625C44.4672 1.65782 45.7578 1.92032 46.8406 2.79532C48.5906 4.19532 49.2797 6.53594 48.5687 8.65782L42.75 26.125Z" fill="#FFB531"/>
<path d="M35.75 17.375V48.875H9.5V17.375L12.125 19.125L14.75 17.375L17.375 19.125L20 17.375L22.625 19.125L25.25 17.375L27.875 19.125L30.5 17.375L33.125 19.125L35.75 17.375Z" fill="#FFB531"/>
<path d="M35.75 24.6266V48.875H9.5V43.5703C19.1359 40.3328 28.6844 34.4375 35.75 24.6266Z" fill="#FCAC1F"/>
<path d="M46.25 17.375V48.875H35.75V17.375L38.375 19.125L41 17.375L43.625 19.125L46.25 17.375Z" fill="#F98500"/>
<path d="M9.66406 52.375C13.5301 52.375 16.6641 49.241 16.6641 45.375C16.6641 41.509 13.5301 38.375 9.66406 38.375C5.79807 38.375 2.66406 41.509 2.66406 45.375C2.66406 49.241 5.79807 52.375 9.66406 52.375Z" fill="#F35244"/>
<path d="M24.375 34L25.25 35.75C24.1672 36.8328 23.7297 38.4078 24.1016 39.9062L24.375 41H20.875V39.6656C20.875 37.2703 22.2312 35.0719 24.375 34Z" fill="#5F9548"/>
<path d="M19.2453 52.375C18.1406 52.375 17.1563 51.6531 16.8391 50.5922L14.8703 44.0188C14.3235 42.1922 15.5266 40.125 17.55 40.125C18.5344 40.125 19.4422 40.6391 19.9453 41.4812L21.75 44.5V49.8703C21.75 51.2484 20.6235 52.375 19.2453 52.375Z" fill="#FA9F0C"/>
<path d="M26.0047 52.375C27.1094 52.375 28.0937 51.6531 28.4109 50.5922L30.3797 44.0188C30.9375 42.1703 29.7125 40.125 27.7 40.125C26.7156 40.125 25.8078 40.6391 25.3047 41.4812L23.5 44.5V49.8703C23.5 51.2484 24.6266 52.375 26.0047 52.375Z" fill="#FA9F0C"/>
<path d="M22.625 40.125C24.0797 40.125 25.25 41.2953 25.25 42.75V49.75C25.25 51.2047 24.0797 52.375 22.625 52.375C21.1703 52.375 20 51.2047 20 49.75V42.75C20 41.2953 21.1703 40.125 22.625 40.125Z" fill="#FFB531"/>
<path d="M47.3875 2.11716C45.7688 0.815601 43.5485 0.421851 41.4375 1.03435C39.3813 1.63591 37.8391 3.0906 37.2047 5.00466L33.6719 15.614L33.2563 15.0015L31.7906 15.975V12.4422L34.2188 10.8234L33.2453 9.36873L31.7797 10.3422V6.3281H30.0297V10.3312L28.575 9.35779L27.6016 10.8125L30.0297 12.4312V15.964L28.575 14.9906L27.6016 16.4453L28.9469 17.3422L27.8641 18.064L25.7203 16.6422C25.6219 16.5765 25.5234 16.5328 25.4141 16.5109C25.4797 16.3469 25.5672 16.1828 25.6656 16.0297C26.3438 14.9906 26.3438 13.6562 25.6766 12.6062C25.0641 11.6765 25.0859 10.2875 25.7203 9.35779C25.9938 8.96404 27.1094 8.1656 27.4047 7.77185C27.9844 7.00623 28.05 6.13123 28.1156 5.3656C28.1594 4.76404 28.2031 4.23904 28.4656 3.83435C29.3078 2.48904 31.0906 2.08435 32.436 2.92654C32.7203 3.10154 32.9609 3.33123 33.1688 3.58279C33.6391 4.17341 33.6828 4.76404 33.7375 5.56248C33.7594 5.83591 33.7813 6.13123 33.8141 6.43748L35.5531 6.21873C35.5203 5.95622 35.4985 5.69373 35.4875 5.44216C35.4219 4.4906 35.3453 3.51716 34.5469 2.49998C32.961 0.487476 30.0516 0.148413 28.0391 1.72341C27.6234 2.05154 27.2625 2.44529 26.9781 2.89373C26.4969 3.65935 26.4313 4.4906 26.3656 5.21248C26.3547 5.37654 26.3438 5.52966 26.3219 5.68279C25.7859 5.32185 25.1734 5.07029 24.5281 4.94998C24.0031 4.86248 23.5656 4.4906 23.4016 3.98748C23.0188 2.79529 22.1875 1.81091 21.0719 1.24216C19.9781 0.662476 18.6984 0.553101 17.5172 0.935913C15.7781 1.5156 14.5094 3.14529 14.3563 5.0156C14.3016 5.72654 14.4766 6.34998 14.6516 6.90779C13.8313 5.56248 12.3984 4.70935 10.8234 4.61091L10.8563 0.728101L9.10626 0.717163L9.08438 3.24373L8.03438 0.553101L6.43751 1.22029L7.48751 3.91091L5.75938 2.07341L4.49063 3.2656L7.14844 6.10935C5.70469 7.59685 5.36563 9.8281 6.32813 11.6656L8.14376 15.1656L9.69688 14.3562L7.88126 10.8562C7.10469 9.35779 7.68438 7.50935 9.18282 6.73279C10.6813 5.95622 12.5297 6.53591 13.3063 8.03435C13.4047 8.23123 13.4813 8.4281 13.5469 8.64685L13.5797 8.75622L10.7578 9.86091L11.3922 11.4906L14.0391 10.4625V10.4734C13.875 11.0969 13.8313 11.7422 13.9406 12.3875L12.0375 13.1312L12.6719 14.7609L14.5531 14.0281C14.9906 14.7609 15.7453 15.439 15.7453 15.439L13.3063 16.3906L13.5906 17.1015L12.1359 18.075L9.9922 16.6531C9.58751 16.3797 9.05157 16.489 8.77813 16.8937C8.67969 17.0359 8.63594 17.2109 8.63594 17.375V35.75H10.3859V19.0047L11.6547 19.8468C11.95 20.0437 12.3328 20.0437 12.6281 19.8468L14.7719 18.425L16.9156 19.8468C17.2109 20.0437 17.5938 20.0437 17.8891 19.8468L20.0328 18.425L22.1766 19.8468C22.4719 20.0437 22.8547 20.0437 23.15 19.8468L25.2938 18.425L27.4375 19.8468C27.7328 20.0437 28.1156 20.0437 28.4109 19.8468L30.5547 18.425L32.6985 19.8468C32.9938 20.0437 33.3766 20.0437 33.6719 19.8468L34.9406 19.0047V48H31.4406V49.75H46.3156C46.7969 49.75 47.1906 49.3562 47.1906 48.875V17.375C47.1906 17.1125 47.0703 16.8718 46.8735 16.7078L49.4656 8.94216C50.2203 6.47029 49.411 3.74685 47.3875 2.11716ZM24.2328 13.5906C24.3094 13.7109 24.3641 13.8422 24.3969 13.9844L23.7953 14.8703L22.4609 11.589L23.6313 9.86091C23.325 11.1187 23.5219 12.5187 24.2328 13.5906ZM18.1297 17.5828C18.3594 16.6531 18.1734 15.6797 17.6375 14.8922C17.1234 14.1484 16.3031 13.6343 15.8875 12.825C15.6688 12.3984 15.5813 11.9062 15.6359 11.425C15.7672 10.3531 16.5766 9.45623 16.6969 8.38435C16.7844 7.59685 16.4672 6.83122 16.3031 6.05466C15.9203 4.33748 17.0031 2.59841 18.8516 2.51091C19.7484 2.4781 20.6016 2.86091 21.1703 3.54998C21.6734 4.17341 21.9031 4.99372 22.4063 5.6281C22.7781 6.09841 23.2813 6.43748 23.85 6.60154C24.4078 6.7656 25.0641 6.78748 25.4359 7.23591C24.7906 7.69529 24.2656 8.29685 23.9047 9.00779L22.6578 8.17654L21.6734 9.59841L20.1641 5.91248L18.5563 6.56872L20.0547 10.2656L18.3484 9.93748L17.9984 11.6437L20.8094 12.2781L22.1766 15.4937L20.4703 15.1656L20.2625 16.1937C20.2516 16.2047 18.5781 17.2547 18.1297 17.5828ZM21.1703 17.1015L22.975 17.4734L23.0953 17.7687L22.625 18.075L21.1703 17.1015ZM32.4578 17.6265L33.136 17.1672L32.8844 17.9109L32.4578 17.6265ZM36.625 19.0047L37.8938 19.8468C38.1891 20.0437 38.5719 20.0437 38.8672 19.8468L40.136 19.0047V43.2531L36.636 46.7531V19.0047H36.625ZM45.375 19.0047V46.7531L41.875 43.2531V19.0047L43.1438 19.8468C43.4391 20.0437 43.8219 20.0437 44.1172 19.8468L45.375 19.0047ZM41 44.8609L44.1391 48H37.861L41 44.8609ZM47.7375 8.38435L44.7625 17.3093L43.625 18.064L41.4813 16.6422C41.186 16.4453 40.8031 16.4453 40.5078 16.6422L38.3641 18.064C38.3641 18.064 36.1766 16.6093 36.1547 16.5984C35.8703 16.4453 35.5203 16.4672 35.2578 16.6422L35.1266 16.7297L38.8563 5.55154C39.3156 4.18435 40.4313 3.15623 41.9297 2.70779C43.4828 2.24841 45.1125 2.53279 46.2938 3.47341C47.7485 4.65466 48.3281 6.61248 47.7375 8.38435Z" fill="black"/>
<path d="M39.9649 7.77576L45.2169 6.9022L45.5039 8.6277L40.2519 9.50126L39.9649 7.77576Z" fill="black"/>
<path d="M38.2134 13.0229L43.4654 12.1494L43.7524 13.8749L38.5004 14.7484L38.2134 13.0229Z" fill="black"/>
<path d="M27.711 39.25C26.7485 39.2391 25.8188 39.6219 25.1406 40.3109C25.1297 40.3 25.1188 40.2891 25.1078 40.2672L24.9656 39.6875C24.9656 39.6766 24.9656 39.6766 24.9547 39.6656C24.6156 38.4734 25.2938 36.9641 25.8844 36.3734C26.1469 36.1109 26.2125 35.6953 26.0485 35.3672L25.1735 33.6172C24.9547 33.1797 24.4297 33.0047 24.0031 33.2234C21.5531 34.4375 20.0109 36.9422 20.0219 39.6656V40.1359C19.8141 39.9828 19.5844 39.8406 19.3547 39.7094C17.6594 38.8016 15.461 39.3703 14.4547 40.9672C13.875 41.8969 13.7219 43.1547 14.05 44.2594L15.1875 48.0547C13.6781 51.0844 10.0031 52.3203 6.97345 50.8219C3.97657 49.3344 2.7297 45.7141 4.17345 42.6953C4.19532 42.6516 4.2172 42.6078 4.23907 42.5641L4.27189 45.5391L6.02189 45.5172L5.9672 41.875L9.45626 42.0391L9.54376 40.2891L6.50314 40.1469C7.41095 39.5891 8.46095 39.2828 9.52189 39.25C10.7906 39.2172 12.0375 39.5781 13.0875 40.2891L14.0609 38.8344C12.0922 37.5109 9.63126 37.15 7.3672 37.8391L7.73907 36.9641L6.13126 36.275L4.92814 39.075C4.84064 39.1406 4.7422 39.2172 4.6547 39.2938L1.98595 36.625L0.750012 37.8609L3.44064 40.5516C3.38595 40.6281 3.33126 40.7047 3.27657 40.7813L0.41095 42.0063L1.10001 43.6141L2.10626 43.1766C0.8922 47.3547 3.29845 51.7188 7.47657 52.9328C10.2328 53.7313 13.2078 52.9656 15.2422 50.9313C15.45 50.7234 15.6469 50.4938 15.8328 50.2641L16.0078 50.8328C16.5438 52.6266 18.425 53.6328 20.2188 53.0969C20.4703 53.0203 20.7 52.9219 20.9297 52.7906C21.9906 53.3813 23.2813 53.3813 24.3422 52.7906C25.9609 53.7203 28.0281 53.1516 28.9578 51.5328C29.0891 51.3141 29.1875 51.0734 29.2641 50.8219L31.2328 44.2484C31.3531 43.8109 31.4078 43.3516 31.386 42.8922C31.375 40.8906 29.7344 39.25 27.711 39.25ZM24.0141 35.2359L24.211 35.6297C23.5219 36.5813 23.0297 37.9703 23.1172 39.2828C22.8656 39.2391 22.1766 39.2063 21.761 39.3594C21.8485 37.7078 22.6797 36.1984 24.0141 35.2359ZM17.6813 50.3406L15.7125 43.7672C15.5266 43.1438 15.6141 42.4 15.9203 41.9078C16.4235 41.0984 17.6375 40.7922 18.5125 41.2625C18.9281 41.4813 19.0922 41.6344 19.2563 41.8422C19.1797 42.1375 19.136 42.4438 19.136 42.75V49.75C19.136 50.3516 19.2891 50.9422 19.5844 51.4672C18.7422 51.6422 17.9219 51.15 17.6813 50.3406ZM20.875 49.75V42.75C20.875 41.7875 21.6625 41 22.625 41C23.5875 41 24.375 41.7875 24.375 42.75V49.75C24.375 50.7125 23.5875 51.5 22.625 51.5C21.6625 51.5 20.875 50.7125 20.875 49.75ZM29.5484 43.7672L27.5797 50.3406C27.3391 51.15 26.5078 51.6422 25.6766 51.4672C25.9719 50.9422 26.125 50.3516 26.125 49.75V42.75C26.125 42.4766 26.0922 42.2141 26.0266 41.9516C26.2563 41.6016 26.7813 41 27.7 41C28.7609 41 29.6141 41.8641 29.6141 42.9141C29.6359 43.1984 29.6141 43.4938 29.5484 43.7672Z" fill="black"/>
</svg>
