<svg xmlns="http://www.w3.org/2000/svg" viewBox="0 0 512 512"><defs><style>.cls-1{fill:#7a5da7;}.cls-2{fill:#f5d2b7;}.cls-3{fill:#f36e21;}.cls-4{fill:#ec6f5d;}.cls-5{fill:#010101;}</style></defs><g id="BULINE"><circle class="cls-1" cx="256" cy="256" r="256"/></g><g id="Fruits"><circle class="cls-2" cx="256" cy="256" r="230"/><path class="cls-3" d="M256,54.35a201.71,201.71,0,0,1,78.48,387.47,201.71,201.71,0,0,1-157-371.64A200.27,200.27,0,0,1,256,54.35M256,26C129,26,26,129,26,256S129,486,256,486,486,383,486,256,383,26,256,26Z"/><circle class="cls-4" cx="256" cy="256" r="165"/><rect class="cls-2" x="251.04" y="66" width="9.92" height="380"/><rect class="cls-2" x="251.04" y="66" width="9.92" height="380" transform="translate(-106.04 256) rotate(-45)"/><rect class="cls-2" x="66" y="251.04" width="380" height="9.92" transform="translate(-106.04 256) rotate(-45)"/><rect class="cls-2" x="66" y="251.04" width="380" height="9.92"/><path d="M362.56,408a5,5,0,0,0-6.95-1.33,199.75,199.75,0,0,1-33.35,18.29,5,5,0,0,0,3.94,9.2,211.41,211.41,0,0,0,21.66-10.84l.27-.16.14-.08.14-.08.55-.32,2.45-1.45.07,0,.06,0h0l.06,0h0l.06,0h0l.06,0h0l.07,0,.06,0h0l.06,0s0,0,0,0l.05,0h0l.05,0h0l0,0h0l0,0h0l0,0h0l.05,0h0l.05,0h0l0,0h0l.05,0h0l.05,0h0a.1.1,0,0,1,.05,0h0a.09.09,0,0,0,.05,0h0l.05,0h0l.05,0h0l0,0h0l0,0h0l0,0h0l.05,0,0,0,0,0,0,0,.05,0,0,0,.05,0h0l0,0h0l.05,0h0l0,0h0l0,0h0s0,0,0,0l0,0,.05,0,0,0,0,0,0,0,0,0h0l0,0h0l0,0h0l0,0,0,0,0,0,0,0,0,0,0,0,0,0,0,0,0,0,0,0,0,0,0,0,0,0,0,0h0l0,0h0l.1-.07.05,0,0,0,.08-.05.06,0,.11-.07,0,0,0,0,.12-.07h0l.06,0,.05,0h0l.06,0,.05,0h0a.1.1,0,0,0,.05,0h0l.06,0h0l.05,0h0l0,0h0l0,0h0l.05,0h0l0,0h0l0,0,0,0,0,0h0l0,0h0l.05,0h0l0,0h0l.05,0h0l.06,0h0l.06,0h0l.06,0h0l.06,0h0a.1.1,0,0,1,.05,0h0l.06,0h0l.05,0h0l.05,0h0l.05,0h0l.05,0h0l.05,0h0l.05,0h0l.06,0h0l0,0h0l.06,0h0l.06,0,.06,0,.13-.08h0q1.83-1.19,3.63-2.41A5,5,0,0,0,362.56,408Zm15.69-12.42a5,5,0,0,0-7.05-.65l-.37.3A5,5,0,0,0,374,404a4.93,4.93,0,0,0,3.18-1.16l.28-.22,0,0,.07-.06,0,0A5,5,0,0,0,378.25,395.53Zm38.07-44.28a4.92,4.92,0,0,0-2.78-.86,5,5,0,0,0-4.16,2.21A201.16,201.16,0,0,1,385.25,382a5,5,0,0,0,7.08,7.07q3.18-3.22,6.23-6.56l.06-.06.05,0h0l.05,0h0l0-.05h0l0-.05h0l0-.05h0l.05-.05h0s0,0,0,0v0l0,0h0l0-.05h0l0-.05h0l0-.05h0l0-.05h0l.05,0s0,0,0,0l0,0s0,0,0,0l0,0h0l0,0h0l0,0,0,0,0,0,0,0,0,0,0,0,.06-.06,0,0,0,0,0,0,0,0h0l0-.05h0l.05,0h0q6.53-7.31,12.36-15.19c.07-.08.13-.17.19-.25h0l0-.05h0l0-.05h0l0-.05v0l0,0,0,0,0,0,0,0,0-.05v0s0,0,0,0v0l0,0v0l0-.05a0,0,0,0,0,0,0l0,0,0,0,0,0v0l0,0s0,0,0,0l0,0s0,0,0,0l0,0v0l0,0s0,0,0,0l0,0,0,0,0,0,0,0,0,0,0,0,0,0,0,0v0l0,0,0,0,0,0,0,0s0,0,0,0l0,0,0,0,0,0,0,0,0,0,0,0,0,0,0,0,0,0,0,0v0l0,0,0,0,0,0,0,0,0,0,0,0,0,0,0,0,0,0v0l0,0,0,0,0,0,0,0s0,0,0,0l0,0,0,0,0,0s0,0,0,0v0l0,0,0,0,0,0v0l0-.05s0,0,0,0l0,0v0l0-.05a0,0,0,0,0,0,0l0,0s0,0,0,0,0,0,0,0v0l0,0,0,0,0,0v0l0,0h0l0,0s0,0,0,0l0,0a0,0,0,0,1,0,0l0,0v0l0-.05h0l0-.06,0-.06h0l0-.05h0a.21.21,0,0,0,0-.06h0l0-.05h0l0-.06h0a.13.13,0,0,1,0-.06h0l.08-.12h0a.21.21,0,0,1,0-.06s0,0,0-.06h0a.21.21,0,0,1,0-.06.21.21,0,0,0,0-.06h0l.27-.39c.68-1,1.34-1.94,2-2.93A5,5,0,0,0,416.32,351.25Z"/></g><g id="Black_outlines_-_to_remove" data-name="Black outlines - to remove"><path class="cls-5" d="M256,36a219.2,219.2,0,1,1-85.63,17.28A218.8,218.8,0,0,1,256,36m0-10C129,26,26,129,26,256S129,486,256,486,486,383,486,256,383,26,256,26Z"/></g></svg>